<svg xmlns="http://www.w3.org/2000/svg" version="1.1" xmlns:xlink="http://www.w3.org/1999/xlink" xmlns:svgjs="http://svgjs.dev/svgjs" width="1440" height="560" preserveAspectRatio="none" viewBox="0 0 1440 560"><g mask="url(&quot;#SvgjsMask1000&quot;)" fill="none"><rect width="1440" height="560" x="0" y="0" fill="#0e2a47"></rect><path d="M-78.92 398.28L-78.92 398.28" stroke="#132e65" stroke-width="1.5"></path><path d="M-78.92 398.28L70.66 358.23" stroke="#132e65" stroke-width="1.5"></path><path d="M-78.92 398.28L102.93 509.07" stroke="#132e65" stroke-width="1.5"></path><path d="M70.66 358.23L70.66 358.23" stroke="#132e65" stroke-width="1.5"></path><path d="M70.66 358.23L102.93 509.07" stroke="#132e65" stroke-width="1.5"></path><path d="M70.66 358.23L261.91 371.13" stroke="#132e65" stroke-width="1.5"></path><path d="M102.93 509.07L102.93 509.07" stroke="#132e65" stroke-width="1.5"></path><path d="M102.93 509.07L50.82 647.89" stroke="#132e65" stroke-width="1.5"></path><path d="M102.93 509.07L259.47 524.48" stroke="#132e65" stroke-width="1.5"></path><path d="M102.93 509.07L199.62 693.89" stroke="#132e65" stroke-width="1.5"></path><path d="M50.82 647.89L50.82 647.89" stroke="#132e65" stroke-width="1.5"></path><path d="M50.82 647.89L199.62 693.89" stroke="#132e65" stroke-width="1.5"></path><path d="M261.91 371.13L261.91 371.13" stroke="#132e65" stroke-width="1.5"></path><path d="M261.91 371.13L406.16 354.28" stroke="#132e65" stroke-width="1.5"></path><path d="M261.91 371.13L259.47 524.48" stroke="#132e65" stroke-width="1.5"></path><path d="M261.91 371.13L369.16 511.92" stroke="#132e65" stroke-width="1.5"></path><path d="M261.91 371.13L102.93 509.07" stroke="#132e65" stroke-width="1.5"></path><path d="M259.47 524.48L259.47 524.48" stroke="#132e65" stroke-width="1.5"></path><path d="M259.47 524.48L369.16 511.92" stroke="#132e65" stroke-width="1.5"></path><path d="M199.62 693.89L199.62 693.89" stroke="#132e65" stroke-width="1.5"></path><path d="M199.62 693.89L352.25 703.93" stroke="#132e65" stroke-width="1.5"></path><path d="M406.16 354.28L406.16 354.28" stroke="#132e65" stroke-width="1.5"></path><path d="M406.16 354.28L521.7 394.68" stroke="#132e65" stroke-width="1.5"></path><path d="M406.16 354.28L369.16 511.92" stroke="#132e65" stroke-width="1.5"></path><path d="M406.16 354.28L259.47 524.48" stroke="#132e65" stroke-width="1.5"></path><path d="M406.16 354.28L690.2 396.87" stroke="#132e65" stroke-width="1.5"></path><path d="M406.16 354.28L662.92 536.71" stroke="#132e65" stroke-width="1.5"></path><path d="M369.16 511.92L369.16 511.92" stroke="#132e65" stroke-width="1.5"></path><path d="M369.16 511.92L521.7 394.68" stroke="#132e65" stroke-width="1.5"></path><path d="M369.16 511.92L352.25 703.93" stroke="#132e65" stroke-width="1.5"></path><path d="M369.16 511.92L523.36 675.82" stroke="#132e65" stroke-width="1.5"></path><path d="M352.25 703.93L352.25 703.93" stroke="#132e65" stroke-width="1.5"></path><path d="M352.25 703.93L523.36 675.82" stroke="#132e65" stroke-width="1.5"></path><path d="M352.25 703.93L259.47 524.48" stroke="#132e65" stroke-width="1.5"></path><path d="M521.7 394.68L521.7 394.68" stroke="#132e65" stroke-width="1.5"></path><path d="M521.7 394.68L690.2 396.87" stroke="#132e65" stroke-width="1.5"></path><path d="M521.7 394.68L662.92 536.71" stroke="#132e65" stroke-width="1.5"></path><path d="M521.7 394.68L261.91 371.13" stroke="#132e65" stroke-width="1.5"></path><path d="M523.36 675.82L523.36 675.82" stroke="#132e65" stroke-width="1.5"></path><path d="M523.36 675.82L660.02 650.86" stroke="#132e65" stroke-width="1.5"></path><path d="M690.2 396.87L690.2 396.87" stroke="#132e65" stroke-width="1.5"></path><path d="M690.2 396.87L824.44 361.59" stroke="#132e65" stroke-width="1.5"></path><path d="M690.2 396.87L662.92 536.71" stroke="#132e65" stroke-width="1.5"></path><path d="M690.2 396.87L837.67 547.02" stroke="#132e65" stroke-width="1.5"></path><path d="M690.2 396.87L833.34 196.68" stroke="#132e65" stroke-width="1.5"></path><path d="M662.92 536.71L662.92 536.71" stroke="#132e65" stroke-width="1.5"></path><path d="M662.92 536.71L660.02 650.86" stroke="#132e65" stroke-width="1.5"></path><path d="M662.92 536.71L837.67 547.02" stroke="#132e65" stroke-width="1.5"></path><path d="M662.92 536.71L523.36 675.82" stroke="#132e65" stroke-width="1.5"></path><path d="M662.92 536.71L840.88 646.56" stroke="#132e65" stroke-width="1.5"></path><path d="M660.02 650.86L660.02 650.86" stroke="#132e65" stroke-width="1.5"></path><path d="M821.05 111.07L821.05 111.07" stroke="#132e65" stroke-width="1.5"></path><path d="M821.05 111.07L833.34 196.68" stroke="#132e65" stroke-width="1.5"></path><path d="M821.05 111.07L1002.2 108.72" stroke="#132e65" stroke-width="1.5"></path><path d="M821.05 111.07L943.48 252.2" stroke="#132e65" stroke-width="1.5"></path><path d="M833.34 196.68L833.34 196.68" stroke="#132e65" stroke-width="1.5"></path><path d="M833.34 196.68L943.48 252.2" stroke="#132e65" stroke-width="1.5"></path><path d="M833.34 196.68L824.44 361.59" stroke="#132e65" stroke-width="1.5"></path><path d="M833.34 196.68L1002.2 108.72" stroke="#132e65" stroke-width="1.5"></path><path d="M824.44 361.59L824.44 361.59" stroke="#132e65" stroke-width="1.5"></path><path d="M824.44 361.59L943.48 252.2" stroke="#132e65" stroke-width="1.5"></path><path d="M824.44 361.59L996.39 384.3" stroke="#132e65" stroke-width="1.5"></path><path d="M824.44 361.59L837.67 547.02" stroke="#132e65" stroke-width="1.5"></path><path d="M837.67 547.02L837.67 547.02" stroke="#132e65" stroke-width="1.5"></path><path d="M837.67 547.02L840.88 646.56" stroke="#132e65" stroke-width="1.5"></path><path d="M837.67 547.02L942.65 651.06" stroke="#132e65" stroke-width="1.5"></path><path d="M837.67 547.02L979.02 502.32" stroke="#132e65" stroke-width="1.5"></path><path d="M840.88 646.56L840.88 646.56" stroke="#132e65" stroke-width="1.5"></path><path d="M840.88 646.56L942.65 651.06" stroke="#132e65" stroke-width="1.5"></path><path d="M840.88 646.56L660.02 650.86" stroke="#132e65" stroke-width="1.5"></path><path d="M840.88 646.56L979.02 502.32" stroke="#132e65" stroke-width="1.5"></path><path d="M956.05 -88.19L956.05 -88.19" stroke="#132e65" stroke-width="1.5"></path><path d="M956.05 -88.19L1002.2 108.72" stroke="#132e65" stroke-width="1.5"></path><path d="M956.05 -88.19L1159.78 -52.92" stroke="#132e65" stroke-width="1.5"></path><path d="M1002.2 108.72L1002.2 108.72" stroke="#132e65" stroke-width="1.5"></path><path d="M1002.2 108.72L1095.73 71.34" stroke="#132e65" stroke-width="1.5"></path><path d="M1002.2 108.72L943.48 252.2" stroke="#132e65" stroke-width="1.5"></path><path d="M1002.2 108.72L1134.46 257.34" stroke="#132e65" stroke-width="1.5"></path><path d="M943.48 252.2L943.48 252.2" stroke="#132e65" stroke-width="1.5"></path><path d="M943.48 252.2L996.39 384.3" stroke="#132e65" stroke-width="1.5"></path><path d="M943.48 252.2L1134.46 257.34" stroke="#132e65" stroke-width="1.5"></path><path d="M996.39 384.3L996.39 384.3" stroke="#132e65" stroke-width="1.5"></path><path d="M996.39 384.3L1104.23 389.05" stroke="#132e65" stroke-width="1.5"></path><path d="M996.39 384.3L979.02 502.32" stroke="#132e65" stroke-width="1.5"></path><path d="M979.02 502.32L979.02 502.32" stroke="#132e65" stroke-width="1.5"></path><path d="M942.65 651.06L942.65 651.06" stroke="#132e65" stroke-width="1.5"></path><path d="M942.65 651.06L979.02 502.32" stroke="#132e65" stroke-width="1.5"></path><path d="M942.65 651.06L1155.37 667.62" stroke="#132e65" stroke-width="1.5"></path><path d="M942.65 651.06L1149.42 540.6" stroke="#132e65" stroke-width="1.5"></path><path d="M942.65 651.06L996.39 384.3" stroke="#132e65" stroke-width="1.5"></path><path d="M1159.78 -52.92L1159.78 -52.92" stroke="#132e65" stroke-width="1.5"></path><path d="M1159.78 -52.92L1261.85 -96.97" stroke="#132e65" stroke-width="1.5"></path><path d="M1095.73 71.34L1095.73 71.34" stroke="#132e65" stroke-width="1.5"></path><path d="M1095.73 71.34L1159.78 -52.92" stroke="#132e65" stroke-width="1.5"></path><path d="M1095.73 71.34L1134.46 257.34" stroke="#132e65" stroke-width="1.5"></path><path d="M1095.73 71.34L1297.58 105.6" stroke="#132e65" stroke-width="1.5"></path><path d="M1095.73 71.34L956.05 -88.19" stroke="#132e65" stroke-width="1.5"></path><path d="M1095.73 71.34L1264.55 229.16" stroke="#132e65" stroke-width="1.5"></path><path d="M1134.46 257.34L1134.46 257.34" stroke="#132e65" stroke-width="1.5"></path><path d="M1134.46 257.34L1264.55 229.16" stroke="#132e65" stroke-width="1.5"></path><path d="M1134.46 257.34L1104.23 389.05" stroke="#132e65" stroke-width="1.5"></path><path d="M1134.46 257.34L1292.35 356.3" stroke="#132e65" stroke-width="1.5"></path><path d="M1134.46 257.34L996.39 384.3" stroke="#132e65" stroke-width="1.5"></path><path d="M1104.23 389.05L1104.23 389.05" stroke="#132e65" stroke-width="1.5"></path><path d="M1104.23 389.05L1149.42 540.6" stroke="#132e65" stroke-width="1.5"></path><path d="M1104.23 389.05L979.02 502.32" stroke="#132e65" stroke-width="1.5"></path><path d="M1104.23 389.05L1292.35 356.3" stroke="#132e65" stroke-width="1.5"></path><path d="M1104.23 389.05L943.48 252.2" stroke="#132e65" stroke-width="1.5"></path><path d="M1149.42 540.6L1149.42 540.6" stroke="#132e65" stroke-width="1.5"></path><path d="M1149.42 540.6L1155.37 667.62" stroke="#132e65" stroke-width="1.5"></path><path d="M1149.42 540.6L979.02 502.32" stroke="#132e65" stroke-width="1.5"></path><path d="M1155.37 667.62L1155.37 667.62" stroke="#132e65" stroke-width="1.5"></path><path d="M1155.37 667.62L1292.85 675.53" stroke="#132e65" stroke-width="1.5"></path><path d="M1155.37 667.62L1389.57 641.23" stroke="#132e65" stroke-width="1.5"></path><path d="M1261.85 -96.97L1261.85 -96.97" stroke="#132e65" stroke-width="1.5"></path><path d="M1261.85 -96.97L1394.55 -90.38" stroke="#132e65" stroke-width="1.5"></path><path d="M1297.58 105.6L1297.58 105.6" stroke="#132e65" stroke-width="1.5"></path><path d="M1297.58 105.6L1396.6 49.56" stroke="#132e65" stroke-width="1.5"></path><path d="M1297.58 105.6L1264.55 229.16" stroke="#132e65" stroke-width="1.5"></path><path d="M1297.58 105.6L1421.26 189.21" stroke="#132e65" stroke-width="1.5"></path><path d="M1264.55 229.16L1264.55 229.16" stroke="#132e65" stroke-width="1.5"></path><path d="M1264.55 229.16L1292.35 356.3" stroke="#132e65" stroke-width="1.5"></path><path d="M1292.35 356.3L1292.35 356.3" stroke="#132e65" stroke-width="1.5"></path><path d="M1292.35 356.3L1434.81 382.02" stroke="#132e65" stroke-width="1.5"></path><path d="M1292.85 675.53L1292.85 675.53" stroke="#132e65" stroke-width="1.5"></path><path d="M1292.85 675.53L1389.57 641.23" stroke="#132e65" stroke-width="1.5"></path><path d="M1292.85 675.53L1149.42 540.6" stroke="#132e65" stroke-width="1.5"></path><path d="M1292.85 675.53L1399.45 506.14" stroke="#132e65" stroke-width="1.5"></path><path d="M1394.55 -90.38L1394.55 -90.38" stroke="#132e65" stroke-width="1.5"></path><path d="M1396.6 49.56L1396.6 49.56" stroke="#132e65" stroke-width="1.5"></path><path d="M1396.6 49.56L1394.55 -90.38" stroke="#132e65" stroke-width="1.5"></path><path d="M1396.6 49.56L1421.26 189.21" stroke="#132e65" stroke-width="1.5"></path><path d="M1421.26 189.21L1421.26 189.21" stroke="#132e65" stroke-width="1.5"></path><path d="M1421.26 189.21L1264.55 229.16" stroke="#132e65" stroke-width="1.5"></path><path d="M1434.81 382.02L1434.81 382.02" stroke="#132e65" stroke-width="1.5"></path><path d="M1434.81 382.02L1556.94 355.06" stroke="#132e65" stroke-width="1.5"></path><path d="M1434.81 382.02L1399.45 506.14" stroke="#132e65" stroke-width="1.5"></path><path d="M1434.81 382.02L1421.26 189.21" stroke="#132e65" stroke-width="1.5"></path><path d="M1399.45 506.14L1399.45 506.14" stroke="#132e65" stroke-width="1.5"></path><path d="M1399.45 506.14L1389.57 641.23" stroke="#132e65" stroke-width="1.5"></path><path d="M1389.57 641.23L1389.57 641.23" stroke="#132e65" stroke-width="1.5"></path><path d="M1549.51 -39.51L1549.51 -39.51" stroke="#132e65" stroke-width="1.5"></path><path d="M1549.51 -39.51L1583.82 44.06" stroke="#132e65" stroke-width="1.5"></path><path d="M1549.51 -39.51L1394.55 -90.38" stroke="#132e65" stroke-width="1.5"></path><path d="M1549.51 -39.51L1396.6 49.56" stroke="#132e65" stroke-width="1.5"></path><path d="M1549.51 -39.51L1421.26 189.21" stroke="#132e65" stroke-width="1.5"></path><path d="M1583.82 44.06L1583.82 44.06" stroke="#132e65" stroke-width="1.5"></path><path d="M1583.82 44.06L1396.6 49.56" stroke="#132e65" stroke-width="1.5"></path><path d="M1583.82 44.06L1575.65 238.84" stroke="#132e65" stroke-width="1.5"></path><path d="M1583.82 44.06L1421.26 189.21" stroke="#132e65" stroke-width="1.5"></path><path d="M1575.65 238.84L1575.65 238.84" stroke="#132e65" stroke-width="1.5"></path><path d="M1575.65 238.84L1556.94 355.06" stroke="#132e65" stroke-width="1.5"></path><path d="M1556.94 355.06L1556.94 355.06" stroke="#132e65" stroke-width="1.5"></path><path d="M1556.94 355.06L1580.19 561.16" stroke="#132e65" stroke-width="1.5"></path><path d="M1556.94 355.06L1421.26 189.21" stroke="#132e65" stroke-width="1.5"></path><path d="M1580.19 561.16L1580.19 561.16" stroke="#132e65" stroke-width="1.5"></path><path d="M1580.19 561.16L1608.44 701.75" stroke="#132e65" stroke-width="1.5"></path><path d="M1580.19 561.16L1399.45 506.14" stroke="#132e65" stroke-width="1.5"></path><path d="M1608.44 701.75L1608.44 701.75" stroke="#132e65" stroke-width="1.5"></path><path d="M1608.44 701.75L1389.57 641.23" stroke="#132e65" stroke-width="1.5"></path><circle r="5" cx="-78.92" cy="398.28" fill="#132e65"></circle><circle r="5" cx="70.66" cy="358.23" fill="#132e65"></circle><circle r="5" cx="102.93" cy="509.07" fill="#132e65"></circle><circle r="5" cx="50.82" cy="647.89" fill="#132e65"></circle><circle r="5" cx="261.91" cy="371.13" fill="#132e65"></circle><circle r="5" cx="259.47" cy="524.48" fill="#132e65"></circle><circle r="5" cx="199.62" cy="693.89" fill="#132e65"></circle><circle r="5" cx="406.16" cy="354.28" fill="#132e65"></circle><circle r="5" cx="369.16" cy="511.92" fill="#132e65"></circle><circle r="5" cx="352.25" cy="703.93" fill="#132e65"></circle><circle r="5" cx="521.7" cy="394.68" fill="#132e65"></circle><circle r="5" cx="523.36" cy="675.82" fill="#132e65"></circle><circle r="5" cx="690.2" cy="396.87" fill="#132e65"></circle><circle r="5" cx="662.92" cy="536.71" fill="#132e65"></circle><circle r="5" cx="660.02" cy="650.86" fill="#132e65"></circle><circle r="5" cx="821.05" cy="111.07" fill="#132e65"></circle><circle r="5" cx="833.34" cy="196.68" fill="#132e65"></circle><circle r="5" cx="824.44" cy="361.59" fill="#132e65"></circle><circle r="5" cx="837.67" cy="547.02" fill="#132e65"></circle><circle r="5" cx="840.88" cy="646.56" fill="#132e65"></circle><circle r="5" cx="956.05" cy="-88.19" fill="#132e65"></circle><circle r="5" cx="1002.2" cy="108.72" fill="#132e65"></circle><circle r="5" cx="943.48" cy="252.2" fill="#132e65"></circle><circle r="5" cx="996.39" cy="384.3" fill="#132e65"></circle><circle r="5" cx="979.02" cy="502.32" fill="#132e65"></circle><circle r="5" cx="942.65" cy="651.06" fill="#132e65"></circle><circle r="5" cx="1159.78" cy="-52.92" fill="#132e65"></circle><circle r="5" cx="1095.73" cy="71.34" fill="#132e65"></circle><circle r="5" cx="1134.46" cy="257.34" fill="#132e65"></circle><circle r="5" cx="1104.23" cy="389.05" fill="#132e65"></circle><circle r="5" cx="1149.42" cy="540.6" fill="#132e65"></circle><circle r="5" cx="1155.37" cy="667.62" fill="#132e65"></circle><circle r="5" cx="1261.85" cy="-96.97" fill="#132e65"></circle><circle r="5" cx="1297.58" cy="105.6" fill="#132e65"></circle><circle r="5" cx="1264.55" cy="229.16" fill="#132e65"></circle><circle r="5" cx="1292.35" cy="356.3" fill="#132e65"></circle><circle r="5" cx="1292.85" cy="675.53" fill="#132e65"></circle><circle r="5" cx="1394.55" cy="-90.38" fill="#132e65"></circle><circle r="5" cx="1396.6" cy="49.56" fill="#132e65"></circle><circle r="5" cx="1421.26" cy="189.21" fill="#132e65"></circle><circle r="5" cx="1434.81" cy="382.02" fill="#132e65"></circle><circle r="5" cx="1399.45" cy="506.14" fill="#132e65"></circle><circle r="5" cx="1389.57" cy="641.23" fill="#132e65"></circle><circle r="5" cx="1549.51" cy="-39.51" fill="#132e65"></circle><circle r="5" cx="1583.82" cy="44.06" fill="#132e65"></circle><circle r="5" cx="1575.65" cy="238.84" fill="#132e65"></circle><circle r="5" cx="1556.94" cy="355.06" fill="#132e65"></circle><circle r="5" cx="1580.19" cy="561.16" fill="#132e65"></circle><circle r="5" cx="1608.44" cy="701.75" fill="#132e65"></circle><path d="M387.99 533.86L387.99 533.86" stroke="hsl(228.5, 77.2%, 51.5%)" stroke-width="1.5"></path><path d="M387.99 533.86L548.16 531.13" stroke="hsl(228.5, 77.2%, 51.5%)" stroke-width="1.5"></path><path d="M387.99 533.86L355.52 696.31" stroke="hsl(228.5, 77.2%, 51.5%)" stroke-width="1.5"></path><path d="M387.99 533.86L530.57 651.97" stroke="hsl(228.5, 77.2%, 51.5%)" stroke-width="1.5"></path><path d="M387.99 533.86L194.98 667.87" stroke="hsl(228.5, 77.2%, 51.5%)" stroke-width="1.5"></path><path d="M387.99 533.86L108.75 537.29" stroke="hsl(228.5, 77.2%, 51.5%)" stroke-width="1.5"></path><path d="M387.99 533.86L648.58 674.89" stroke="hsl(228.5, 77.2%, 51.5%)" stroke-width="1.5"></path><path d="M355.52 696.31L355.52 696.31" stroke="hsl(228.5, 77.2%, 51.5%)" stroke-width="1.5"></path><path d="M355.52 696.31L194.98 667.87" stroke="hsl(228.5, 77.2%, 51.5%)" stroke-width="1.5"></path><path d="M355.52 696.31L530.57 651.97" stroke="hsl(228.5, 77.2%, 51.5%)" stroke-width="1.5"></path><path d="M548.16 531.13L548.16 531.13" stroke="hsl(228.5, 77.2%, 51.5%)" stroke-width="1.5"></path><path d="M548.16 531.13L530.57 651.97" stroke="hsl(228.5, 77.2%, 51.5%)" stroke-width="1.5"></path><path d="M548.16 531.13L711.91 548.86" stroke="hsl(228.5, 77.2%, 51.5%)" stroke-width="1.5"></path><path d="M548.16 531.13L648.58 674.89" stroke="hsl(228.5, 77.2%, 51.5%)" stroke-width="1.5"></path><path d="M548.16 531.13L703.71 376.47" stroke="hsl(228.5, 77.2%, 51.5%)" stroke-width="1.5"></path><path d="M530.57 651.97L530.57 651.97" stroke="hsl(228.5, 77.2%, 51.5%)" stroke-width="1.5"></path><path d="M530.57 651.97L648.58 674.89" stroke="hsl(228.5, 77.2%, 51.5%)" stroke-width="1.5"></path><path d="M813.96 381.29L813.96 381.29" stroke="hsl(228.5, 77.2%, 51.5%)" stroke-width="1.5"></path><path d="M813.96 381.29L703.71 376.47" stroke="hsl(228.5, 77.2%, 51.5%)" stroke-width="1.5"></path><path d="M813.96 381.29L944.18 389.19" stroke="hsl(228.5, 77.2%, 51.5%)" stroke-width="1.5"></path><path d="M813.96 381.29L828.79 555.78" stroke="hsl(228.5, 77.2%, 51.5%)" stroke-width="1.5"></path><path d="M819.02 664.81L819.02 664.81" stroke="hsl(228.5, 77.2%, 51.5%)" stroke-width="1.5"></path><path d="M819.02 664.81L828.79 555.78" stroke="hsl(228.5, 77.2%, 51.5%)" stroke-width="1.5"></path><path d="M819.02 664.81L938.77 708.86" stroke="hsl(228.5, 77.2%, 51.5%)" stroke-width="1.5"></path><path d="M956.54 503.98L956.54 503.98" stroke="hsl(228.5, 77.2%, 51.5%)" stroke-width="1.5"></path><path d="M956.54 503.98L944.18 389.19" stroke="hsl(228.5, 77.2%, 51.5%)" stroke-width="1.5"></path><path d="M956.54 503.98L828.79 555.78" stroke="hsl(228.5, 77.2%, 51.5%)" stroke-width="1.5"></path><path d="M956.54 503.98L1128.73 556.95" stroke="hsl(228.5, 77.2%, 51.5%)" stroke-width="1.5"></path><path d="M956.54 503.98L813.96 381.29" stroke="hsl(228.5, 77.2%, 51.5%)" stroke-width="1.5"></path><path d="M1567.82 530.91L1567.82 530.91" stroke="hsl(228.5, 77.2%, 51.5%)" stroke-width="1.5"></path><path d="M1567.82 530.91L1442.5 501.13" stroke="hsl(228.5, 77.2%, 51.5%)" stroke-width="1.5"></path><path d="M1544.69 659.49L1544.69 659.49" stroke="hsl(228.5, 77.2%, 51.5%)" stroke-width="1.5"></path><path d="M1544.69 659.49L1567.82 530.91" stroke="hsl(228.5, 77.2%, 51.5%)" stroke-width="1.5"></path><path d="M1544.69 659.49L1400.59 656.21" stroke="hsl(228.5, 77.2%, 51.5%)" stroke-width="1.5"></path><path d="M1544.69 659.49L1442.5 501.13" stroke="hsl(228.5, 77.2%, 51.5%)" stroke-width="1.5"></path><path d="M1544.69 659.49L1250.63 699.23" stroke="hsl(228.5, 77.2%, 51.5%)" stroke-width="1.5"></path><path d="M1544.69 659.49L1245.52 500.34" stroke="hsl(228.5, 77.2%, 51.5%)" stroke-width="1.5"></path><path d="M1544.69 659.49L1588.41 235.15" stroke="hsl(228.5, 77.2%, 51.5%)" stroke-width="1.5"></path><path d="M-39.52 533.08L-39.52 533.08" stroke="hsl(228.5, 77.2%, 51.5%)" stroke-width="1.5"></path><path d="M-39.52 533.08L-55.42 659.65" stroke="hsl(228.5, 77.2%, 51.5%)" stroke-width="1.5"></path><path d="M-39.52 533.08L108.75 537.29" stroke="hsl(228.5, 77.2%, 51.5%)" stroke-width="1.5"></path><path d="M-55.42 659.65L-55.42 659.65" stroke="hsl(228.5, 77.2%, 51.5%)" stroke-width="1.5"></path><path d="M-55.42 659.65L59.38 664.3" stroke="hsl(228.5, 77.2%, 51.5%)" stroke-width="1.5"></path><path d="M-55.42 659.65L108.75 537.29" stroke="hsl(228.5, 77.2%, 51.5%)" stroke-width="1.5"></path><path d="M-55.42 659.65L194.98 667.87" stroke="hsl(228.5, 77.2%, 51.5%)" stroke-width="1.5"></path><path d="M-55.42 659.65L355.52 696.31" stroke="hsl(228.5, 77.2%, 51.5%)" stroke-width="1.5"></path><path d="M108.75 537.29L108.75 537.29" stroke="hsl(228.5, 77.2%, 51.5%)" stroke-width="1.5"></path><path d="M108.75 537.29L59.38 664.3" stroke="hsl(228.5, 77.2%, 51.5%)" stroke-width="1.5"></path><path d="M108.75 537.29L194.98 667.87" stroke="hsl(228.5, 77.2%, 51.5%)" stroke-width="1.5"></path><path d="M108.75 537.29L355.52 696.31" stroke="hsl(228.5, 77.2%, 51.5%)" stroke-width="1.5"></path><path d="M59.38 664.3L59.38 664.3" stroke="hsl(228.5, 77.2%, 51.5%)" stroke-width="1.5"></path><path d="M59.38 664.3L194.98 667.87" stroke="hsl(228.5, 77.2%, 51.5%)" stroke-width="1.5"></path><path d="M59.38 664.3L-39.52 533.08" stroke="hsl(228.5, 77.2%, 51.5%)" stroke-width="1.5"></path><path d="M59.38 664.3L355.52 696.31" stroke="hsl(228.5, 77.2%, 51.5%)" stroke-width="1.5"></path><path d="M59.38 664.3L387.99 533.86" stroke="hsl(228.5, 77.2%, 51.5%)" stroke-width="1.5"></path><path d="M194.98 667.87L194.98 667.87" stroke="hsl(228.5, 77.2%, 51.5%)" stroke-width="1.5"></path><path d="M703.71 376.47L703.71 376.47" stroke="hsl(228.5, 77.2%, 51.5%)" stroke-width="1.5"></path><path d="M703.71 376.47L711.91 548.86" stroke="hsl(228.5, 77.2%, 51.5%)" stroke-width="1.5"></path><path d="M703.71 376.47L828.79 555.78" stroke="hsl(228.5, 77.2%, 51.5%)" stroke-width="1.5"></path><path d="M703.71 376.47L944.18 389.19" stroke="hsl(228.5, 77.2%, 51.5%)" stroke-width="1.5"></path><path d="M711.91 548.86L711.91 548.86" stroke="hsl(228.5, 77.2%, 51.5%)" stroke-width="1.5"></path><path d="M711.91 548.86L828.79 555.78" stroke="hsl(228.5, 77.2%, 51.5%)" stroke-width="1.5"></path><path d="M711.91 548.86L648.58 674.89" stroke="hsl(228.5, 77.2%, 51.5%)" stroke-width="1.5"></path><path d="M648.58 674.89L648.58 674.89" stroke="hsl(228.5, 77.2%, 51.5%)" stroke-width="1.5"></path><path d="M648.58 674.89L819.02 664.81" stroke="hsl(228.5, 77.2%, 51.5%)" stroke-width="1.5"></path><path d="M828.79 555.78L828.79 555.78" stroke="hsl(228.5, 77.2%, 51.5%)" stroke-width="1.5"></path><path d="M828.79 555.78L938.77 708.86" stroke="hsl(228.5, 77.2%, 51.5%)" stroke-width="1.5"></path><path d="M828.79 555.78L944.18 389.19" stroke="hsl(228.5, 77.2%, 51.5%)" stroke-width="1.5"></path><path d="M997.45 239.11L997.45 239.11" stroke="hsl(228.5, 77.2%, 51.5%)" stroke-width="1.5"></path><path d="M997.45 239.11L1111.02 255.4" stroke="hsl(228.5, 77.2%, 51.5%)" stroke-width="1.5"></path><path d="M997.45 239.11L944.18 389.19" stroke="hsl(228.5, 77.2%, 51.5%)" stroke-width="1.5"></path><path d="M997.45 239.11L1141.57 73.2" stroke="hsl(228.5, 77.2%, 51.5%)" stroke-width="1.5"></path><path d="M997.45 239.11L1149.91 398.37" stroke="hsl(228.5, 77.2%, 51.5%)" stroke-width="1.5"></path><path d="M944.18 389.19L944.18 389.19" stroke="hsl(228.5, 77.2%, 51.5%)" stroke-width="1.5"></path><path d="M938.77 708.86L938.77 708.86" stroke="hsl(228.5, 77.2%, 51.5%)" stroke-width="1.5"></path><path d="M938.77 708.86L956.54 503.98" stroke="hsl(228.5, 77.2%, 51.5%)" stroke-width="1.5"></path><path d="M1141.57 73.2L1141.57 73.2" stroke="hsl(228.5, 77.2%, 51.5%)" stroke-width="1.5"></path><path d="M1141.57 73.2L1249.77 44.2" stroke="hsl(228.5, 77.2%, 51.5%)" stroke-width="1.5"></path><path d="M1141.57 73.2L1111.02 255.4" stroke="hsl(228.5, 77.2%, 51.5%)" stroke-width="1.5"></path><path d="M1141.57 73.2L1244.35 -98.36" stroke="hsl(228.5, 77.2%, 51.5%)" stroke-width="1.5"></path><path d="M1141.57 73.2L1262.04 255.44" stroke="hsl(228.5, 77.2%, 51.5%)" stroke-width="1.5"></path><path d="M1141.57 73.2L1258.67 340.82" stroke="hsl(228.5, 77.2%, 51.5%)" stroke-width="1.5"></path><path d="M1111.02 255.4L1111.02 255.4" stroke="hsl(228.5, 77.2%, 51.5%)" stroke-width="1.5"></path><path d="M1111.02 255.4L1149.91 398.37" stroke="hsl(228.5, 77.2%, 51.5%)" stroke-width="1.5"></path><path d="M1111.02 255.4L1262.04 255.44" stroke="hsl(228.5, 77.2%, 51.5%)" stroke-width="1.5"></path><path d="M1111.02 255.4L1258.67 340.82" stroke="hsl(228.5, 77.2%, 51.5%)" stroke-width="1.5"></path><path d="M1149.91 398.37L1149.91 398.37" stroke="hsl(228.5, 77.2%, 51.5%)" stroke-width="1.5"></path><path d="M1149.91 398.37L1258.67 340.82" stroke="hsl(228.5, 77.2%, 51.5%)" stroke-width="1.5"></path><path d="M1149.91 398.37L1245.52 500.34" stroke="hsl(228.5, 77.2%, 51.5%)" stroke-width="1.5"></path><path d="M1128.73 556.95L1128.73 556.95" stroke="hsl(228.5, 77.2%, 51.5%)" stroke-width="1.5"></path><path d="M1128.73 556.95L1245.52 500.34" stroke="hsl(228.5, 77.2%, 51.5%)" stroke-width="1.5"></path><path d="M1128.73 556.95L1149.91 398.37" stroke="hsl(228.5, 77.2%, 51.5%)" stroke-width="1.5"></path><path d="M1128.73 556.95L1250.63 699.23" stroke="hsl(228.5, 77.2%, 51.5%)" stroke-width="1.5"></path><path d="M1128.73 556.95L938.77 708.86" stroke="hsl(228.5, 77.2%, 51.5%)" stroke-width="1.5"></path><path d="M1128.73 556.95L944.18 389.19" stroke="hsl(228.5, 77.2%, 51.5%)" stroke-width="1.5"></path><path d="M1244.35 -98.36L1244.35 -98.36" stroke="hsl(228.5, 77.2%, 51.5%)" stroke-width="1.5"></path><path d="M1244.35 -98.36L1249.77 44.2" stroke="hsl(228.5, 77.2%, 51.5%)" stroke-width="1.5"></path><path d="M1244.35 -98.36L1407.28 -111.2" stroke="hsl(228.5, 77.2%, 51.5%)" stroke-width="1.5"></path><path d="M1244.35 -98.36L1440.57 78.76" stroke="hsl(228.5, 77.2%, 51.5%)" stroke-width="1.5"></path><path d="M1249.77 44.2L1249.77 44.2" stroke="hsl(228.5, 77.2%, 51.5%)" stroke-width="1.5"></path><path d="M1249.77 44.2L1440.57 78.76" stroke="hsl(228.5, 77.2%, 51.5%)" stroke-width="1.5"></path><path d="M1249.77 44.2L1262.04 255.44" stroke="hsl(228.5, 77.2%, 51.5%)" stroke-width="1.5"></path><path d="M1249.77 44.2L1407.28 -111.2" stroke="hsl(228.5, 77.2%, 51.5%)" stroke-width="1.5"></path><path d="M1249.77 44.2L1437.16 204.47" stroke="hsl(228.5, 77.2%, 51.5%)" stroke-width="1.5"></path><path d="M1262.04 255.44L1262.04 255.44" stroke="hsl(228.5, 77.2%, 51.5%)" stroke-width="1.5"></path><path d="M1262.04 255.44L1258.67 340.82" stroke="hsl(228.5, 77.2%, 51.5%)" stroke-width="1.5"></path><path d="M1258.67 340.82L1258.67 340.82" stroke="hsl(228.5, 77.2%, 51.5%)" stroke-width="1.5"></path><path d="M1258.67 340.82L1245.52 500.34" stroke="hsl(228.5, 77.2%, 51.5%)" stroke-width="1.5"></path><path d="M1245.52 500.34L1245.52 500.34" stroke="hsl(228.5, 77.2%, 51.5%)" stroke-width="1.5"></path><path d="M1250.63 699.23L1250.63 699.23" stroke="hsl(228.5, 77.2%, 51.5%)" stroke-width="1.5"></path><path d="M1250.63 699.23L1400.59 656.21" stroke="hsl(228.5, 77.2%, 51.5%)" stroke-width="1.5"></path><path d="M1250.63 699.23L1245.52 500.34" stroke="hsl(228.5, 77.2%, 51.5%)" stroke-width="1.5"></path><path d="M1250.63 699.23L1442.5 501.13" stroke="hsl(228.5, 77.2%, 51.5%)" stroke-width="1.5"></path><path d="M1250.63 699.23L938.77 708.86" stroke="hsl(228.5, 77.2%, 51.5%)" stroke-width="1.5"></path><path d="M1407.28 -111.2L1407.28 -111.2" stroke="hsl(228.5, 77.2%, 51.5%)" stroke-width="1.5"></path><path d="M1407.28 -111.2L1440.57 78.76" stroke="hsl(228.5, 77.2%, 51.5%)" stroke-width="1.5"></path><path d="M1407.28 -111.2L1597.71 -42" stroke="hsl(228.5, 77.2%, 51.5%)" stroke-width="1.5"></path><path d="M1407.28 -111.2L1567.73 79.89" stroke="hsl(228.5, 77.2%, 51.5%)" stroke-width="1.5"></path><path d="M1407.28 -111.2L1437.16 204.47" stroke="hsl(228.5, 77.2%, 51.5%)" stroke-width="1.5"></path><path d="M1440.57 78.76L1440.57 78.76" stroke="hsl(228.5, 77.2%, 51.5%)" stroke-width="1.5"></path><path d="M1440.57 78.76L1437.16 204.47" stroke="hsl(228.5, 77.2%, 51.5%)" stroke-width="1.5"></path><path d="M1440.57 78.76L1567.73 79.89" stroke="hsl(228.5, 77.2%, 51.5%)" stroke-width="1.5"></path><path d="M1437.16 204.47L1437.16 204.47" stroke="hsl(228.5, 77.2%, 51.5%)" stroke-width="1.5"></path><path d="M1437.16 204.47L1588.41 235.15" stroke="hsl(228.5, 77.2%, 51.5%)" stroke-width="1.5"></path><path d="M1442.5 501.13L1442.5 501.13" stroke="hsl(228.5, 77.2%, 51.5%)" stroke-width="1.5"></path><path d="M1442.5 501.13L1400.59 656.21" stroke="hsl(228.5, 77.2%, 51.5%)" stroke-width="1.5"></path><path d="M1400.59 656.21L1400.59 656.21" stroke="hsl(228.5, 77.2%, 51.5%)" stroke-width="1.5"></path><path d="M1400.59 656.21L1567.82 530.91" stroke="hsl(228.5, 77.2%, 51.5%)" stroke-width="1.5"></path><path d="M1400.59 656.21L1245.52 500.34" stroke="hsl(228.5, 77.2%, 51.5%)" stroke-width="1.5"></path><path d="M1400.59 656.21L1128.73 556.95" stroke="hsl(228.5, 77.2%, 51.5%)" stroke-width="1.5"></path><path d="M1597.71 -42L1597.71 -42" stroke="hsl(228.5, 77.2%, 51.5%)" stroke-width="1.5"></path><path d="M1597.71 -42L1567.73 79.89" stroke="hsl(228.5, 77.2%, 51.5%)" stroke-width="1.5"></path><path d="M1597.71 -42L1440.57 78.76" stroke="hsl(228.5, 77.2%, 51.5%)" stroke-width="1.5"></path><path d="M1597.71 -42L1588.41 235.15" stroke="hsl(228.5, 77.2%, 51.5%)" stroke-width="1.5"></path><path d="M1567.73 79.89L1567.73 79.89" stroke="hsl(228.5, 77.2%, 51.5%)" stroke-width="1.5"></path><path d="M1567.73 79.89L1588.41 235.15" stroke="hsl(228.5, 77.2%, 51.5%)" stroke-width="1.5"></path><path d="M1567.73 79.89L1437.16 204.47" stroke="hsl(228.5, 77.2%, 51.5%)" stroke-width="1.5"></path><path d="M1588.41 235.15L1588.41 235.15" stroke="hsl(228.5, 77.2%, 51.5%)" stroke-width="1.5"></path><path d="M1588.41 235.15L1440.57 78.76" stroke="hsl(228.5, 77.2%, 51.5%)" stroke-width="1.5"></path><circle r="25" cx="387.99" cy="533.86" fill="url(&quot;#SvgjsRadialGradient1001&quot;)"></circle><circle r="25" cx="355.52" cy="696.31" fill="url(&quot;#SvgjsRadialGradient1001&quot;)"></circle><circle r="25" cx="548.16" cy="531.13" fill="url(&quot;#SvgjsRadialGradient1001&quot;)"></circle><circle r="25" cx="530.57" cy="651.97" fill="url(&quot;#SvgjsRadialGradient1001&quot;)"></circle><circle r="25" cx="813.96" cy="381.29" fill="url(&quot;#SvgjsRadialGradient1001&quot;)"></circle><circle r="25" cx="819.02" cy="664.81" fill="url(&quot;#SvgjsRadialGradient1001&quot;)"></circle><circle r="25" cx="956.54" cy="503.98" fill="url(&quot;#SvgjsRadialGradient1001&quot;)"></circle><circle r="25" cx="1567.82" cy="530.91" fill="url(&quot;#SvgjsRadialGradient1001&quot;)"></circle><circle r="25" cx="1544.69" cy="659.49" fill="url(&quot;#SvgjsRadialGradient1001&quot;)"></circle><circle r="5" cx="-39.52" cy="533.08" fill="#8b9ad9"></circle><circle r="5" cx="-55.42" cy="659.65" fill="#8b9ad9"></circle><circle r="5" cx="108.75" cy="537.29" fill="#8b9ad9"></circle><circle r="5" cx="59.38" cy="664.3" fill="#8b9ad9"></circle><circle r="5" cx="194.98" cy="667.87" fill="#8b9ad9"></circle><circle r="5" cx="703.71" cy="376.47" fill="#8b9ad9"></circle><circle r="5" cx="711.91" cy="548.86" fill="#8b9ad9"></circle><circle r="5" cx="648.58" cy="674.89" fill="#8b9ad9"></circle><circle r="5" cx="828.79" cy="555.78" fill="#8b9ad9"></circle><circle r="5" cx="997.45" cy="239.11" fill="#8b9ad9"></circle><circle r="5" cx="944.18" cy="389.19" fill="#8b9ad9"></circle><circle r="5" cx="938.77" cy="708.86" fill="#8b9ad9"></circle><circle r="5" cx="1141.57" cy="73.2" fill="#8b9ad9"></circle><circle r="5" cx="1111.02" cy="255.4" fill="#8b9ad9"></circle><circle r="5" cx="1149.91" cy="398.37" fill="#8b9ad9"></circle><circle r="5" cx="1128.73" cy="556.95" fill="#8b9ad9"></circle><circle r="5" cx="1244.35" cy="-98.36" fill="#8b9ad9"></circle><circle r="5" cx="1249.77" cy="44.2" fill="#8b9ad9"></circle><circle r="5" cx="1262.04" cy="255.44" fill="#8b9ad9"></circle><circle r="5" cx="1258.67" cy="340.82" fill="#8b9ad9"></circle><circle r="5" cx="1245.52" cy="500.34" fill="#8b9ad9"></circle><circle r="5" cx="1250.63" cy="699.23" fill="#8b9ad9"></circle><circle r="5" cx="1407.28" cy="-111.2" fill="#8b9ad9"></circle><circle r="5" cx="1440.57" cy="78.76" fill="#8b9ad9"></circle><circle r="5" cx="1437.16" cy="204.47" fill="#8b9ad9"></circle><circle r="5" cx="1442.5" cy="501.13" fill="#8b9ad9"></circle><circle r="5" cx="1400.59" cy="656.21" fill="#8b9ad9"></circle><circle r="5" cx="1597.71" cy="-42" fill="#8b9ad9"></circle><circle r="5" cx="1567.73" cy="79.89" fill="#8b9ad9"></circle><circle r="5" cx="1588.41" cy="235.15" fill="#8b9ad9"></circle></g><defs><mask id="SvgjsMask1000"><rect width="1440" height="560" fill="#ffffff"></rect></mask><radialGradient id="SvgjsRadialGradient1001"><stop stop-color="#ffffff" offset="0.1"></stop><stop stop-color="#1735b3" offset="0.2"></stop><stop stop-color="rgba(23, 53, 179, 0)" offset="1"></stop></radialGradient></defs></svg>